<?xml version="1.0" encoding="iso-8859-1"?>
<!-- Uploaded to: SVG Repo, www.svgrepo.com, Generator: SVG Repo Mixer Tools -->
<svg height="800px" width="800px" version="1.1" id="Layer_1" xmlns="http://www.w3.org/2000/svg" xmlns:xlink="http://www.w3.org/1999/xlink" 
	 viewBox="0 0 512 512" xml:space="preserve">
<circle style="fill:#E4E7ED;" cx="256" cy="256" r="256"/>
<path style="fill:#FF7069;" d="M458.1,154.7c-56.1-5.8-112.2-11.7-168.2-17.5c-56.1-5.8-112.1-11.7-168.2-17.5
	c-9.5-0.9-15.5,6.4-13.1,16.4c7.5,33.9,15.1,67.8,22.6,101.7s15.1,67.8,22.6,101.7c2.2,10,9.5,18.2,16.2,18.2c39.5,0,78.9,0,118.4,0
	h87.1v12.9c0,1.8-1.5,3.5-3.5,3.5H186.8c-1.8,0-3.5,1.6-3.5,3.5v11.3c0,1.8,1.6,3.5,3.5,3.5h188.8h14.8c1.8,0,3.5-1.5,3.5-3.5v-14.8
	v-16.4H407c6.7,0,14-6.9,16.4-15.3c8-28.4,15.9-56.8,23.9-85.3c8-28.4,15.9-56.8,23.9-85.3C473.4,163.5,467.5,155.6,458.1,154.7z
	 M184.8,324.2c-0.2,0-0.5,0-0.7,0c-3.1-0.2-6.4-3.6-7.1-8c-4.6-25.7-9.3-51.6-13.8-77.4c-4.6-25.9-9.3-51.7-13.8-77.6
	c-0.7-4.2,1.8-7.5,5.8-7.1c0.4,0.2,0.7,0.2,1.1,0.2H156c4,0.5,7.8,4.2,8.6,8.6c4,25.5,8,51.2,12.2,76.9c4.2,25.5,8.2,51.2,12.4,76.9
	C189.9,320.7,187.9,324.2,184.8,324.2z M225.4,321.6c-0.2,0-0.5,0-0.7,0c-3.1-0.2-6-3.6-6.6-7.8c-2.9-25.1-5.6-50.5-8.6-75.6
	c-2.9-25.1-5.6-50.5-8.6-75.6c-0.5-4.2,2.4-7.3,6.4-6.9c0.4,0.2,0.7,0.2,1.1,0.2v-0.2c4,0.5,7.7,4.2,8,8.4c2.2,25,4.6,50.1,6.9,75.1
	c2.2,25,4.6,50.1,6.9,75.1C230.7,318.4,228.5,321.6,225.4,321.6z M266.6,322.7c-0.2,0-0.5,0-0.7,0c-3.1-0.2-5.8-3.5-6-7.7
	c-1.1-24.6-2.2-49.2-3.3-73.8c-1.1-24.6-2.2-49.2-3.3-73.8c-0.2-4,2.9-7.1,6.9-6.7c0.4,0.2,0.7,0.2,1.1,0.2c4,0.4,7.5,4,7.5,8
	c0.5,24.4,1.1,48.8,1.6,73.2s1.1,48.8,1.6,73.2C272.2,319.4,269.7,322.7,266.6,322.7z M317.4,245.3c-1.3,23.7-2.4,47.6-3.6,71.2
	c-0.2,4-2.9,7.1-6,7.1c-0.2,0-0.4,0-0.7,0c-3.1-0.2-5.6-3.5-5.5-7.5c0.5-23.9,1.3-47.9,2-71.8c0.5-24.1,1.3-47.9,2-72
	c0-4,3.5-6.9,7.5-6.6c0.4,0.2,0.7,0.2,1.1,0.2c4,0.4,7.1,3.8,6.9,7.8C319.8,197.7,318.7,221.6,317.4,245.3z M373.2,178.8
	c-2.9,23.1-6,46.3-8.9,69.4s-6,46.3-8.9,69.4c-0.5,3.8-3.5,6.9-6.6,6.9c-0.4,0-0.5,0-0.9,0c-3.1-0.2-5.3-3.5-4.9-7.3
	c2.6-23.3,4.9-46.6,7.5-70c2.6-23.3,4.9-46.6,7.5-70c0.4-3.8,4-6.7,8-6.4c0.4,0.2,0.7,0.2,1.1,0.2l-0.2-0.2
	C370.8,171.5,373.7,175,373.2,178.8z M425.1,185.2c-4.9,22.6-9.7,45-14.4,67.6s-9.5,45-14.2,67.6c-0.7,3.8-4,6.7-7.1,6.7
	c-0.2,0-0.4,0-0.7,0c-3.1,0-5.1-3.1-4.4-6.9c4.4-22.8,8.6-45.4,12.8-68.1s8.6-45.4,12.8-68.1c0.7-3.8,4.6-6.6,8.6-6.2
	c0.4,0.2,0.7,0.2,1.1,0.2l-0.2-0.2C423.3,178.1,425.8,181.3,425.1,185.2z"/>
<path style="fill:#F7635B;" d="M463.4,170.2l-12.2,42.1l-30.8-3.1c1.6-7.7,3.3-15.1,4.9-22.8c0.7-3.8-1.8-7.1-5.8-7.5
	c-0.4,0-0.7,0-1.1-0.2c-4-0.4-7.8,2.4-8.6,6.2c-1.5,7.7-2.9,15.1-4.2,22.8l-35.3-3.5l3.1-24.6c0.5-3.8-2.4-7.3-6.4-7.8
	c-0.4,0-0.7,0-1.1-0.2c-4-0.4-7.7,2.6-8,6.4c-0.9,8.2-1.8,16.4-2.6,24.6l-35.5-3.5c0.4-8.2,0.9-16.2,1.3-24.4c0.2-4-2.9-7.5-6.9-7.8
	c-0.4,0-0.7,0-1.1-0.2c-4-0.4-7.5,2.6-7.5,6.6c-0.2,8.2-0.5,16.2-0.7,24.4l-35.5-3.5c-0.2-8-0.4-16.2-0.5-24.2c0-4-3.5-7.7-7.5-8
	c-0.4,0-0.7,0-1.1-0.2c-4-0.4-7.1,2.7-6.9,6.7c0.4,8,0.7,16.2,1.1,24.2l-35.7-3.5c-0.7-8-1.5-16-2.2-24.1c-0.4-4.2-4-7.8-8-8.4
	c-0.4,0-0.7,0-1.1-0.2c-4-0.4-6.9,2.7-6.4,6.9c0.9,8,1.8,16,2.7,24.1L168,184c-1.1-6.9-2.2-13.7-3.3-20.6c-0.7-4.4-4.6-8-8.6-8.6
	c-0.4,0-0.7,0-1.1-0.2c-4-0.4-6.6,2.9-5.8,7.1c1.3,6.7,2.4,13.7,3.6,20.4l-25.5-2.6l-18.9-42.8l354.9,32.8v0.7H463.4z"/>
<path style="fill:#FF7069;" d="M477.2,150.7l-442-42.3L35,47.2c0-3.8-3.1-6.9-6.7-6.9l-11.8-0.4c-3.8-0.2-6.9,2.9-6.9,6.7l0.2,80.7
	c0,3.8,3.1,6.9,6.7,7.1H17c0.7,0.4,1.5,0.5,2.2,0.5l454.4,43.5c4,0.4,7.8-2.6,8.4-6.7l1.6-12.9c0.5-4-2.4-7.8-6.6-8.2h0.2V150.7z"/>
</svg>